<?xml version="1.0" standalone="no"?>
<!DOCTYPE svg PUBLIC "-//W3C//DTD SVG 20010904//EN"
 "http://www.w3.org/TR/2001/REC-SVG-20010904/DTD/svg10.dtd">
<svg version="1.0" xmlns="http://www.w3.org/2000/svg"
 width="70.000000pt" height="70.000000pt" viewBox="0 0 5000.000000 5000.000000"
 preserveAspectRatio="xMidYMid meet">

<g transform="translate(0.000000,5000.000000) scale(0.100000,-0.100000)"
fill="#000000" stroke="none">
<path d="M13885 45320 c-395 -35 -776 -153 -1103 -341 -188 -108 -321 -209
-481 -363 -384 -373 -621 -841 -686 -1356 -25 -196 -17 -494 19 -681 71 -378
227 -723 464 -1029 91 -117 287 -316 407 -413 478 -386 1085 -597 1721 -597
l151 0 1176 -2452 c647 -1349 1179 -2460 1182 -2469 4 -12 -18 -31 -87 -74
-682 -430 -1322 -925 -1977 -1532 l-74 -69 2365 -1864 2366 -1865 998 -2080
c548 -1144 1002 -2092 1007 -2106 9 -22 -13 -71 -182 -408 -106 -211 -191
-384 -189 -386 2 -2 232 -184 513 -404 l509 -402 29 57 c16 31 32 53 37 48 9
-11 2170 -4518 2170 -4528 0 -4 -101 -208 -224 -454 l-224 -448 500 -395 c275
-216 506 -398 514 -402 10 -6 29 24 75 115 l61 122 19 -34 c10 -19 43 -89 74
-156 l57 -120 -2643 -5255 -2642 -5254 -559 -2039 c-307 -1121 -558 -2040
-556 -2041 2 -1 600 768 1329 1709 l1325 1711 1010 2007 1009 2008 195 0 c776
1 1674 89 2442 241 221 43 482 101 490 108 3 3 -470 381 -1052 840 l-1059 834
331 656 c182 361 332 658 334 659 1 2 681 -531 1509 -1185 l1507 -1188 961
-2006 962 -2006 1295 -1736 c712 -954 1296 -1735 1297 -1734 0 1 -233 924
-519 2051 l-519 2049 -946 1971 c-520 1084 -947 1978 -947 1988 -1 9 -8 24
-16 33 -15 18 -1430 2965 -1423 2965 2 0 623 -488 1380 -1085 l1376 -1084 51
36 c267 193 645 489 867 679 183 156 369 325 369 333 0 4 -1154 918 -2565
2030 l-2565 2022 332 657 c182 361 332 658 333 660 1 1 1234 -970 2741 -2158
1506 -1188 2742 -2160 2746 -2160 18 0 374 434 579 705 169 225 309 420 309
431 -1 5 -1285 1021 -2855 2258 l-2854 2249 330 658 c181 363 331 659 334 659
3 0 1310 -1029 2905 -2286 1594 -1257 2903 -2285 2907 -2286 21 -2 335 635
497 1005 940 2153 1294 4517 1030 6877 -213 1904 -835 3741 -1822 5380 -183
304 -352 561 -621 941 l-33 46 1792 3564 1792 3564 157 -3 c1238 -28 2345 791
2611 1932 58 250 73 588 36 826 -151 981 -884 1735 -1909 1964 -267 60 -631
77 -900 42 -550 -71 -1046 -288 -1449 -636 -826 -711 -1075 -1846 -608 -2780
121 -244 236 -404 436 -610 l83 -85 -4987 -9917 c-2743 -5455 -4990 -9914
-4993 -9910 -4 4 -352 727 -774 1607 l-768 1600 176 345 175 345 -547 430
-546 431 -707 1474 c-390 811 -708 1476 -708 1478 0 7 47 -29 501 -387 272
-214 495 -388 497 -386 2 2 1092 2158 2422 4792 1808 3579 2415 4790 2405
4795 -28 16 -379 143 -590 213 -269 90 -603 188 -618 182 -7 -2 -1051 -2064
-2322 -4580 -1270 -2517 -2313 -4576 -2316 -4577 -3 0 -161 326 -352 724
l-347 724 2019 3998 c1361 2694 2016 4001 2008 4005 -17 9 -474 74 -692 98
-1037 116 -2113 104 -3145 -35 -1186 -159 -2393 -499 -3467 -977 l-101 -45
-1145 2386 -1144 2387 126 130 c236 243 382 468 504 775 54 135 108 339 133
500 22 140 25 461 6 595 -35 248 -106 483 -213 705 -123 255 -256 446 -452
647 -219 226 -420 372 -713 519 -279 140 -564 227 -880 269 -147 19 -426 27
-559 15z m12418 -29650 c168 -349 303 -636 302 -638 -2 -2 -208 158 -458 355
l-454 358 144 289 c82 163 148 285 153 280 5 -5 146 -295 313 -644z"/>
<path d="M27070 31663 c-1240 -2456 -2361 -4677 -2490 -4934 l-236 -469 568
-447 c312 -246 571 -449 576 -451 4 -1 1150 2259 2546 5023 2391 4734 2537
5027 2520 5040 -47 34 -436 274 -594 366 -189 110 -614 339 -627 339 -4 -1
-1023 -2010 -2263 -4467z"/>
<path d="M29070 29599 c-1400 -2773 -2545 -5045 -2545 -5050 0 -9 1015 -812
1020 -807 4 4 4848 9593 4969 9837 l91 183 -120 115 c-306 293 -840 764 -864
763 -3 0 -1151 -2269 -2551 -5041z"/>
<path d="M13472 32723 c-213 -261 -415 -530 -629 -837 -84 -121 -109 -163 -99
-171 106 -86 7179 -5661 7184 -5662 4 -2 157 294 339 656 l333 658 -3487 2749
c-1917 1512 -3492 2752 -3499 2757 -9 5 -52 -41 -142 -150z"/>
<path d="M11981 30447 c-19 -24 -237 -479 -342 -715 -97 -219 -251 -596 -301
-737 l-25 -70 3596 -2834 c1978 -1559 3600 -2834 3605 -2834 12 1 753 1469
746 1475 -4 4 -7203 5679 -7256 5720 -7 5 -16 3 -23 -5z"/>
<path d="M10841 27343 c-107 -458 -190 -937 -257 -1484 l-5 -45 3301 -2603
c1816 -1432 3303 -2601 3306 -2599 2 2 152 299 334 658 312 619 329 655 313
671 -28 26 -6961 5489 -6967 5489 -2 0 -14 -39 -25 -87z"/>
<path d="M10504 23835 c110 -3201 1353 -6237 3508 -8570 91 -99 199 -212 240
-252 l73 -72 1094 2169 c602 1192 1095 2171 1095 2174 1 3 -1333 1057 -2964
2343 -1631 1286 -2986 2354 -3010 2373 l-43 34 7 -199z"/>
<path d="M19920 23183 c-251 -496 -370 -741 -364 -750 17 -25 1009 -801 1015
-795 4 4 172 335 374 736 254 503 365 733 359 742 -5 7 -216 176 -469 375
-253 199 -479 377 -502 395 l-41 34 -372 -737z"/>
<path d="M25722 22968 c-71 -139 -221 -435 -332 -657 -168 -336 -200 -406
-188 -417 7 -7 236 -188 508 -403 484 -382 495 -390 510 -369 8 12 160 308
336 659 l322 637 -505 399 c-278 219 -509 399 -513 401 -4 2 -66 -111 -138
-250z"/>
<path d="M21970 21565 c-204 -405 -370 -740 -368 -745 4 -10 1130 -899 1140
-900 3 0 174 331 378 736 309 612 370 738 359 749 -10 9 -1017 803 -1125 887
-9 6 -122 -209 -384 -727z"/>
<path d="M18542 20454 l-332 -656 23 -18 c12 -10 242 -191 511 -404 l490 -386
79 153 c156 302 589 1168 586 1171 -114 92 -1004 789 -1013 792 -9 3 -119
-205 -344 -652z"/>
<path d="M20887 19417 c-25 -45 -175 -342 -335 -659 l-291 -578 566 -446 c311
-245 570 -447 577 -450 6 -2 150 271 343 654 l332 657 -217 171 c-119 93 -378
297 -574 452 l-357 281 -44 -82z"/>
<path d="M16690 16788 c-470 -930 -975 -1929 -1121 -2220 l-266 -529 151 -121
c272 -218 860 -648 886 -648 4 0 432 840 950 1868 519 1027 1019 2016 1112
2199 l169 331 -473 373 c-260 205 -491 387 -513 405 l-41 33 -854 -1691z"/>
<path d="M22771 17126 c-182 -360 -331 -657 -331 -659 0 -5 1007 -801 1018
-804 4 -2 157 294 340 656 l332 658 -509 402 c-280 220 -512 401 -515 401 -2
0 -153 -294 -335 -654z"/>
<path d="M18520 14733 c-1024 -2028 -1072 -2126 -1054 -2140 32 -24 539 -276
719 -358 249 -113 545 -237 556 -233 9 3 1999 3934 1999 3949 0 6 -1102 881
-1135 901 -7 4 -385 -734 -1085 -2119z"/>
<path d="M21717 15038 c-98 -187 -1748 -3460 -1745 -3463 8 -7 486 -129 658
-169 212 -48 620 -130 624 -124 9 11 1538 3048 1537 3053 0 6 -1010 805 -1017
805 -1 0 -27 -46 -57 -102z"/>
</g>
</svg>
